<?xml version="1.0" encoding="UTF-8"?>
<svg id="Capa_1" data-name="Capa 1" xmlns="http://www.w3.org/2000/svg" viewBox="0 0 579.47 591.64">
  <defs>
    <style>
      .cls-1 {
        fill: #1d182d;
      }

      .cls-2 {
        fill: #e6c788;
      }
    </style>
  </defs>
  <path class="cls-2" d="m547,229.09c-.74-1.83-1.54-3.44-2.24-5.14l-1.09-2.52-.99-2.56-.98-2.56-.89-2.6c-2.35-6.94-4.17-14.07-5.65-21.27-2.96-14.41-4.55-29.11-6.37-43.81-1.76-14.72-4.15-29.42-7.24-43.94-1.53-7.27-3.22-14.5-5.04-21.7l-5.61-21.5c-.94-3.59-1.92-7.19-3.05-10.77-.57-1.79-1.16-3.57-1.81-5.34-.33-.88-.67-1.77-1.02-2.64l-.54-1.31-.14-.33-.19-.41-.36-.69c-1.91-3.37-3.92-6.38-5.78-9.56-.93-1.57-1.84-3.15-2.65-4.73-.4-.79-.78-1.58-1.07-2.34-.15-.38-.27-.74-.34-1.04-.03-.14-.05-.27-.05-.31-.01-.07.01.04,0,.06,0,0-.05.27-.15.36l-3.36-2.06c-.12.19-.24.38-.36.56-1.64-.87-3.38-1.56-5.19-2-2.97-.72-6.05-.89-9.09-.72-6.09.35-12.02,1.96-17.7,3.97-11.33,4.08-22.42,8.83-33.13,14.33-21.44,11-41.63,24.38-60.5,39.31-18.9,14.92-36.59,31.27-53.73,48.07-8.6,8.36-17.1,16.78-25.86,24.92-4.39,4.05-8.83,8.05-13.36,11.95-4.52,3.89-9.2,7.65-13.8,11.49-18.46,15.32-36.68,30.92-54.91,46.5l-27.36,23.37c-9.09,7.84-18.04,15.83-26.89,23.95l-6.54,6.19c-2.2,2.05-4.34,4.15-6.46,6.28l-6.39,6.35-6.26,6.48c-2.1,2.15-4.14,4.36-6.18,6.56-2.03,2.21-4.1,4.39-6.11,6.63-3.97,4.51-7.98,8.99-11.8,13.63-15.01,17.87-28.64,36.93-40.3,57.11-1.32.99-2.5,2.29-3.2,3.81-1.66,3.57-1.53,7.21-2.4,10.48-.76,3.34-1.96,6.57-3.5,9.65-3.07,6.18-7.47,11.65-12.17,16.79-4.72,5.15-9.83,9.97-14.8,14.96-4.95,5-9.83,10.16-13.9,16-4.05,5.82-7.19,12.42-8.41,19.5l-.07.42.33.26c28.38,22.48,59.58,41.2,92.24,56.69,2.01,1.03,4.08,1.94,6.15,2.84l6.2,2.74,6.2,2.74c2.07.9,4.12,1.87,6.23,2.66l12.61,4.98,6.31,2.49,6.39,2.26,12.79,4.52c4.27,1.49,8.61,2.75,12.91,4.14l6.47,2.04c2.15.68,4.31,1.37,6.49,1.96l13.04,3.7c34.83,9.75,70.37,16.78,106.1,22.3,4.47.66,8.93,1.43,13.41,2.01l13.44,1.82c8.95,1.24,17.93,2.32,26.96,3.18,18.02,1.68,36.36,2.18,54.44-.57l1.31-.2.11-1.33c1.5-18.93,2.29-37.91,2.32-56.9,0-9.49-.21-18.99-.59-28.47-.34-9.48-1.05-18.98-1.55-28.38-.47-9.41-.35-18.76,1.38-27.95,1.64-9.22,4.27-18.3,6.51-27.55,1.12-4.62,2.14-9.29,2.9-14.03.73-4.73,1.35-9.4,1.98-14.11,1.24-9.4,2.33-18.83,3.29-28.27,3.69-37.42,5.2-75.05,4.47-112.63l12.48,67.04.13.74.7-.29c27.38-11.45,52.71-27.82,74.54-48.01,5.5-5,10.66-10.36,15.71-15.83,2.47-2.78,4.96-5.54,7.3-8.43,1.19-1.44,2.4-2.81,3.55-4.37,1.13-1.56,2.23-3.35,2.6-5.52.38-2.18-.17-4.32-.88-6.13Z"/>
  <g>
    <g>
      <path class="cls-1" d="m468.42,118.19c2.03,11.69,1.49,23.86-1.61,35.33-1.84,6.83-4.61,13.48-5.65,20.46-.7,4.63-.71,9.35-.52,14.06,4.16,66.22,1.74,132.92-8.02,198.58-2.23,14.05-6.94,27.68-9.42,41.57-2.66,13.93-1.42,28.09-.55,42.16,2.01,33.16,1.62,66.45-1.02,99.56,0,0-.09,1.16-.09,1.16-18.42,2.93-37.14,2.47-55.54.75-123.31-13.49-256.27-43.94-354.15-123.54,6.11-33.32,47.26-46.18,53.33-79.4.38-2.69.71-5.37,1.88-7.93,1.61-3.55,5.37-5.33,8.76-6.6,0,0,9.75-3.95,9.75-3.95,64.91-27.11,122.14-69.26,174.82-115.35,31.77-27.67,62.37-56.74,94.06-84.55,31.6-27.82,64.99-53.8,94.91-83.39,19.95-19.64,38.17-41.1,52.93-64.84l2.94,1.8s.07-.1.09-.16c.02-.07.02-.13.03-.11.02,0,0-.08,0,0,.19,1.34.9,2.53,1.49,3.8,2.54,4.96,5.62,9.35,8.44,14.29,0,0,.36.68.36.68,0,0,.18.39.18.39,1.32,3.15,2.49,6.36,3.5,9.61,9.13,31.81,17.22,64.99,20.96,97.86,3.3,26.44,5.89,53.44,17.12,77.89,2.57,5.02,3.17,9.39-.56,14.09-3.23,4.27-7.28,8.75-10.83,12.79-14.35,15.83-30.71,29.79-48.49,41.62-13.35,8.81-27.55,16.31-42.28,22.51,0,0-.12-.65-.12-.65l-10.46-58.74c.83-.87,11.18,58.62,11.5,58.55,0,0-.72-.39-.72-.39,37.19-16.21,70.55-41.26,96.16-72.73,4.8-5.79,7.7-8.71,3.65-16.05,0,0-1.14-2.56-1.14-2.56-1.48-3.25-2.96-7.04-4.12-10.41-11.9-35.32-11.28-73.17-19.97-109.2-2.63-12.86-7.46-30.2-10.84-42.98-1.92-7.02-3.81-14.05-6.89-20.64-2.72-4.67-5.96-9.45-8.51-14.37-.85-1.98-2.32-4.1-1.7-6.4.06-.17.14-.33.22-.48,0,0,2.94,1.8,2.94,1.8-29.79,48.34-73.5,85.57-116.4,121.75-43.33,35.87-83.93,74.7-126.34,111.64-52.99,46.11-110.74,88.16-176.12,114.85,0,0-9.82,3.89-9.82,3.89-3.11,1.18-6.28,2.5-7.76,5.58-1.42,2.9-1.4,6.53-2.32,10.03-4.23,17.69-18.99,29.8-31.25,42.09-9.79,9.69-19.69,20.61-22.12,34.59,0,0-.23-.6-.23-.6,17.61,14.08,36.34,26.74,55.87,38.01,74.58,42.81,159.26,64.35,243.81,76.67,35.47,4.58,71.73,10.99,107.41,5.77,0,0-1.24,1.34-1.24,1.34,1.45-18.85,2.18-37.75,2.16-56.65,0-14.18-.37-28.35-1.17-42.51-.53-9.48-1.3-18.99-.89-28.53.66-19.15,8.12-37.11,11.15-55.8,9.93-65.49,12.84-131.96,9.41-198.11-.13-4.75-.07-9.55.7-14.28,1.15-7.11,3.98-13.66,5.92-20.52,3.19-11.35,3.93-23.38,2.09-35.05,0,0,.34-.06.34-.06h0Z"/>
      <path class="cls-1" d="m321.41,266.72c17.94,2.26,35.99,6.02,54.1,6.54,14.78.12,29.45-4.78,41.52-13.22,16.04-11.44,26.33-29.3,31.46-48.14,0,0,.34.06.34.06-1.33,13.28-6.48,26.37-14.92,37.07-13.8,17.37-32.05,23.2-53.36,25.17-13.3,1.62-26.86,1.01-39.9-2-6.53-1.4-12.96-3.09-19.31-5.15l.07-.33h0Z"/>
      <path class="cls-1" d="m407.69,166.1c-3.62,6.24-1.17,14.82,5.58,17.29,4.52,1.56,9.57-.72,12.17-4.48,4.15-5.68,2.09-14-4.8-16.86,0,0,.05-.22.05-.22,8.64.97,12.27,11.79,6.47,18.4-4.81,6.19-15.64,5.68-20.69,0-1.69-2.09-2.39-4.86-2.21-7.47.18-2.61,1.29-5.21,3.26-6.81l.17.15h0Z"/>
      <path class="cls-1" d="m418.26,168.57c1.47-1.03,3.81-.11,4.43,1.65.31.91.03,1.88-.2,2.62-.52,1.57-1.23,3.45-3.15,3.83-1.91.54-4.17-.73-4.49-2.71-.17-.92.05-1.9.69-2.49l.21.08c.31,2.02,2.15,3.25,4.04,2.91,1.83-.25,2.7-2.09,1.2-3.36-.69-.8-1.27-1.62-2.71-2.3l-.03-.23h0Z"/>
    </g>
    <path class="cls-1" d="m89.09,358.92c48.27-84.15,127.91-142.73,200.33-204.78,9.29-7.58,18.44-15.23,27.21-23.4,26.19-24.67,51.15-50.72,79.62-72.92,28.28-22.34,59.49-41.52,93.52-53.74,5.68-2.02,11.59-3.64,17.67-4.01,6.02-.39,12.42.76,17.24,4.57,0,0-.2.28-.2.28-10.26-7-23.4-3.29-34.1.79-30.55,11.99-58.84,29.5-84.81,49.45-21.31,16.44-41.38,34.38-60.81,53.01-17.22,16.68-34.96,33.02-54.16,47.44-37.68,29.61-73.89,61.13-108.31,94.47-17.14,16.69-34.11,33.59-49.69,51.75-15.96,17.65-30.1,38.19-43.49,57.1h0Z"/>
    <path class="cls-1" d="m251.05,450.06c-2.32,2.36-4.09,5.11-5.11,8.12-1.58,4.41-1.69,9.36-.06,13.7,1.2,3.42,4.31-.28,5.48-1.87.9-1.24,1.53-2.67,1.96-4.17l.11.52c-1.32-2.21-3.04-4.21-5.09-5.93,2.41,1.18,4.56,2.96,6.24,5.15l.15.2c-.46,3.63-2.33,7.15-5.48,9.18-4.77,2.53-6.36-3.91-6.61-7.32-.58-6.8,2.61-14.01,8.44-17.58h0Z"/>
    <path class="cls-1" d="m449.62,398.86c-6.29,8.8-15.54,15.22-25.7,18.06,9.93-3.56,18.44-10.54,23.8-19.32l1.9,1.26h0Z"/>
    <path class="cls-1" d="m87.63,360.23c11.13.24,22.24.6,33.36,0-11.05,1.35-22.22,1.76-33.33,2.28l-.03-2.28h0Z"/>
    <path class="cls-1" d="m578,212.7c-12.58,16.84-27.72,31.73-44.71,44,16.77-12.58,31.58-27.7,43.79-44.67l.92.67h0Z"/>
    <path class="cls-1" d="m525.81,8.75c-3.43,7.91-8.35,15.08-14.35,21.05,5.45-6.49,9.6-13.96,12.22-21.87l2.13.82h0Z"/>
  </g>
</svg>