<?xml version="1.0" encoding="UTF-8"?>
<svg xmlns="http://www.w3.org/2000/svg" viewBox="0 0 589.6 750.4">
  <defs>
    <style>
      .cls-1 {
        fill: #030307;
      }

      .cls-2 {
        isolation: isolate;
      }

      .cls-3 {
        fill: none;
        stroke: #1d182d;
        stroke-miterlimit: 10;
        stroke-width: 1.14px;
      }

      .cls-4 {
        mix-blend-mode: soft-light;
        opacity: .3;
      }

      .cls-5 {
        fill: #1d182d;
      }

      .cls-6 {
        fill: #af1b1c;
        opacity: .28;
      }

      .cls-7 {
        fill: #e6c788;
      }
    </style>
  </defs>
  <g class="cls-2">
    <g id="Capa_1" data-name="Capa 1">
      <g class="cls-4">
        <path class="cls-1" d="m588.65,378.05c-2.64-3.31-5.84-6.12-9.33-8.41-3.48-2.33-7.29-4.05-11.12-5.54-3.86-1.47-7.8-2.6-11.75-3.59-3.95-1.01-7.92-1.86-11.87-2.72-3.94-.87-7.89-1.7-11.74-2.75l-5.8-1.64-5.77-1.77c-7.67-2.44-15.23-5.21-22.67-8.29-14.91-6.08-29.32-13.42-43.02-21.91-6.78-4.33-13.79-8.47-19.55-14.03-2.85-2.79-5.32-6-6.94-9.64-1.43-3.32-2.11-6.96-2.02-10.6,2.33-1.35,4.48-2.96,6.43-4.78,2.41.47,4.92.58,7.42.17,4.05-.67,7.89-2.57,10.87-5.5,1.5-1.46,2.76-3.2,3.63-5.15.44-.96.79-2.02,1.04-3.01.25-.98.44-1.96.62-2.9.35-1.9.63-3.66,1.24-5.23.3-.8.65-1.51,1.12-2.29l1.44-2.42c1.96-3.21,4.12-6.39,6.1-9.71,2.01-3.29,3.88-6.66,5.59-10.12,1.76-3.43,3.27-6.98,4.69-10.56.73-1.78,1.38-3.59,2.03-5.4.32-.9.61-1.82.92-2.73.32-.9.63-1.81.9-2.73,1.19-3.65,2.21-7.35,3.14-11.07l.69-2.8.6-2.82c.23-.94.4-1.88.58-2.83.17-.95.38-1.89.51-2.85.27-1.9.6-3.82.72-5.78.14-1.94.22-3.86.3-5.75.06-1.89.2-3.74.43-5.55.12-.9.27-1.78.5-2.64.11-.45.23-.83.35-1.19.15-.37.31-.74.51-1.1,1.59-2.96,4.86-5.36,6.87-9.08,1.98-3.62,2.63-7.72,2.59-11.61,0-1.96-.2-3.89-.45-5.8-.13-.96-.28-1.91-.44-2.86l1.53-1.76c2.06-2.36,3.59-5.14,4.66-8.01,1.07-2.88,1.71-5.85,2.11-8.8.4-2.96.59-5.9.73-8.82l.36-8.72c.42-11.63.37-23.51-2.43-35.06-1.41-5.75-3.59-11.39-6.82-16.43-.2-.32-.38-.64-.59-.95l-.67-.9-1.34-1.8c-.92-1.18-1.99-2.24-2.98-3.36-2.1-2.15-4.42-3.98-6.69-5.8-2.27-1.81-4.48-3.6-6.48-5.62-2.02-2.01-3.91-4.19-5.9-6.34-1.98-2.15-4.07-4.27-6.45-6.11-2.37-1.83-4.95-3.33-7.56-4.67-2.62-1.34-5.27-2.54-7.89-3.78l-7.89-3.7c-5.26-2.44-10.49-5.04-16.04-6.98-5.54-1.97-11.43-3-17.31-3.03-2.94-.03-5.89.23-8.77.68-2.89.44-5.73.99-8.59,1.32-5.7.69-11.46-.06-17.19-.95-5.72-.87-11.56-1.84-17.46-1.31-2.93.27-5.87.95-8.57,2.17-2.71,1.19-5.21,2.7-7.76,4.05-2.54,1.35-5.16,2.54-7.93,3.03-2.77.49-5.66.25-8.6.29-2.95-.02-5.96.53-8.75,1.58-2.79,1.04-5.38,2.55-7.76,4.3-4.79,3.5-8.66,8.06-12.12,12.74-3.48,4.68-6.68,9.54-10.41,13.89-3.63,4.37-8.38,7.98-11.53,13.28-.77,1.31-1.41,2.75-1.88,4.19-.47,1.44-.82,2.88-1.18,4.27-.36,1.39-.74,2.74-1.24,4.01-.54,1.25-1.15,2.48-1.93,3.63-3.01,4.69-7.56,8.44-11.06,13.39-1.78,2.44-3.15,5.35-3.8,8.37-.69,3.02-.75,6.07-.66,9.02.14,4.47.6,8.87.2,13.03-3.5-2.51-8.21-3.25-12.51-2.35-2.28.46-4.49,1.34-6.47,2.64-1.97,1.29-3.76,2.97-5.03,5.03-.64,1.02-1.16,2.15-1.55,3.28-.38,1.13-.66,2.25-.9,3.33-.48,2.2-.97,4.11-1.96,5.91-1.93,3.63-5.06,6.74-7.79,10.37-2.7,3.63-5.02,7.55-6.8,11.7-1.78,4.15-2.98,8.55-3.49,13.01-.53,4.47-.24,9.02.87,13.39,1.15,4.35,3.09,8.57,6.11,12.06.73.89,1.57,1.7,2.39,2.48.84.76,1.66,1.46,2.33,2.21.67.75,1.16,1.53,1.4,2.37.25.85.29,1.82.24,2.85-.29,4.23-1.15,8.86-.13,13.63.5,2.37,1.58,4.71,3.1,6.64,1.53,1.93,3.41,3.49,5.44,4.75,2.03,1.25,4.25,2.19,6.47,2.84,2.23.67,4.48,1.14,6.7,1.5l6.59.94c1.15.15,1.92.33,2.16.61.37.3.75,1.2,1.25,2.31,2,4.36,5.37,7.97,9.44,10.32,2.02,1.2,4.25,2.03,6.54,2.52,2.27.45,4.58.65,6.88.49,4.2-.24,8.32-1.82,11.47-4.46,1.07.28,2.22.29,3.31.06-.62,11.86-1.69,23.68-2.61,35.53-.48,6.1-.86,12.22-1.08,18.35-.25,6.1-.56,12.19-1.8,18.07-1.21,5.88-3.62,11.42-6.97,16.39-3.34,4.97-7.43,9.44-11.94,13.45-8.95,8.13-19.38,14.51-30.28,19.84-21.86,10.65-45.46,17.64-67.67,28.36-11.05,5.39-21.75,11.82-30.98,20.1-2.29,2.07-4.53,4.22-6.61,6.5-1.09,1.1-2.04,2.32-3.02,3.52l-2.93,3.59c-.93,1.23-1.77,2.53-2.65,3.79-.85,1.29-1.8,2.51-2.57,3.85l-2.32,4-1.16,2c-.36.68-.68,1.38-1.03,2.07-5.55,11-9.52,22.7-12.6,34.56-.78,2.97-1.45,5.95-2.18,8.93l-1.94,8.98-3.66,17.99c-2.41,11.99-4.86,23.98-8.21,35.72-3.36,11.74-7.4,23.28-11.37,34.86-1.99,5.79-3.97,11.58-5.84,17.42-.94,2.92-1.84,5.85-2.7,8.79-.9,2.93-1.71,5.89-2.54,8.85-3.26,11.83-5.96,23.8-8.39,35.82-4.86,24.04-8.31,48.31-11.82,72.53l-.25,1.71,1.72.25c9.92,1.44,19.93,2.32,29.95,2.59,10.02.25,20.06-.06,30.05-.95,9.99-.88,19.92-2.32,29.75-4.33,9.82-2.01,19.54-4.55,29.06-7.69l.73-.24.3-.69c5.67-13.19,10.84-26.58,15.57-40.13,4.72-13.55,9-27.25,12.73-41.1,1.87-6.92,3.65-13.88,5.14-20.9,1.52-7.01,2.81-14.07,3.95-21.15,2.2-13.76,3.78-27.62,5.44-41.41.76,1.4,1.41,2.84,1.86,4.37,1.12,3.33,1.73,6.82,2.19,10.35.24,1.77.39,3.54.58,5.31.12,1.78.27,3.55.33,5.33.33,7.12.08,14.26-.18,21.43-.06,1.53-.11,3.05-.17,4.58-.02.38-.05.76-.07,1.14h.04c-.17,5.28-.28,10.57-.07,15.88.13,3.63.42,7.23.64,10.79l.71,10.72.71,10.72c.13,1.82.22,3.51.38,5.42l.58,5.37c.39,3.56.75,7.11,1.01,10.65.12,1.77.23,3.54.25,5.27.01.87,0,1.73-.06,2.54-.03.4-.07.81-.13,1.12-.03.18-.07.28-.09.39-.01.04,0,0,0,0,0,.03.04-.06.09-.13.05-.06.12-.11.2-.15l1.91,2.85s0,0,0,0h0c33.51-22.47,66.27-46.09,97.76-71.32,15.76-12.59,31.33-25.42,46.54-38.67,15.24-13.22,30.16-26.79,44.86-40.58,29.43-27.56,58.23-55.75,88.19-82.7,29.88-27.03,61.04-52.64,93.65-76.17l1.25-.9-.95-1.2Z"/>
      </g>
      <path class="cls-7" d="m564.63,394.15c-2.64-3.31-5.84-6.12-9.33-8.41-3.48-2.33-7.29-4.05-11.12-5.54-3.86-1.47-7.8-2.6-11.75-3.59-3.95-1.01-7.92-1.86-11.87-2.72-3.94-.87-7.89-1.7-11.74-2.75l-5.8-1.64-5.77-1.77c-7.67-2.44-15.23-5.21-22.67-8.29-14.91-6.08-29.32-13.42-43.02-21.91-6.78-4.33-13.79-8.47-19.55-14.03-2.85-2.79-5.32-6-6.93-9.64-1.43-3.32-2.11-6.96-2.02-10.6,2.33-1.35,4.48-2.96,6.43-4.78,2.41.47,4.92.58,7.42.17,4.05-.67,7.89-2.57,10.87-5.5,1.5-1.46,2.76-3.2,3.63-5.15.44-.96.79-2.02,1.04-3.01.25-.98.44-1.96.62-2.9.35-1.9.63-3.66,1.24-5.23.3-.8.65-1.51,1.12-2.29l1.44-2.42c1.96-3.21,4.12-6.39,6.1-9.71,2.01-3.29,3.88-6.66,5.59-10.12,1.76-3.43,3.27-6.98,4.69-10.56.73-1.78,1.38-3.59,2.03-5.4.32-.9.61-1.82.92-2.73.32-.9.63-1.81.9-2.73,1.19-3.65,2.2-7.35,3.14-11.07l.69-2.8.6-2.82c.23-.94.4-1.88.58-2.83.17-.95.38-1.89.51-2.85.27-1.9.6-3.82.72-5.78.14-1.94.22-3.86.3-5.75.06-1.89.2-3.74.43-5.55.12-.9.27-1.78.5-2.64.11-.45.23-.83.35-1.19.15-.37.31-.74.51-1.1,1.59-2.96,4.86-5.36,6.87-9.08,1.98-3.62,2.63-7.72,2.59-11.61,0-1.96-.2-3.89-.46-5.8-.13-.96-.28-1.91-.44-2.86l1.53-1.76c2.06-2.36,3.59-5.14,4.66-8.01,1.07-2.88,1.71-5.85,2.11-8.8.4-2.96.59-5.9.73-8.82l.36-8.72c.42-11.63.37-23.51-2.43-35.06-1.41-5.75-3.59-11.39-6.82-16.43-.2-.32-.38-.64-.59-.95l-.67-.9-1.34-1.8c-.92-1.18-1.99-2.24-2.98-3.36-2.1-2.15-4.42-3.98-6.69-5.8-2.27-1.81-4.48-3.6-6.48-5.62-2.02-2.01-3.91-4.19-5.9-6.34-1.98-2.15-4.07-4.27-6.45-6.11-2.37-1.83-4.95-3.33-7.56-4.67-2.62-1.34-5.27-2.54-7.89-3.78l-7.89-3.7c-5.26-2.44-10.49-5.04-16.04-6.98-5.54-1.97-11.43-3-17.31-3.03-2.94-.03-5.89.23-8.77.68-2.89.44-5.73.99-8.59,1.32-5.7.69-11.46-.06-17.19-.95-5.72-.87-11.56-1.84-17.46-1.31-2.93.27-5.87.95-8.57,2.17-2.71,1.19-5.21,2.7-7.76,4.05-2.54,1.35-5.16,2.54-7.93,3.03-2.77.49-5.66.25-8.6.29-2.95-.02-5.96.53-8.75,1.58-2.79,1.04-5.38,2.55-7.76,4.3-4.78,3.5-8.66,8.06-12.12,12.74-3.49,4.68-6.68,9.54-10.41,13.89-3.63,4.37-8.38,7.98-11.53,13.28-.77,1.31-1.41,2.75-1.88,4.19-.47,1.44-.82,2.88-1.18,4.27-.36,1.39-.74,2.74-1.24,4.01-.54,1.25-1.15,2.48-1.93,3.63-3.01,4.69-7.56,8.44-11.06,13.39-1.78,2.44-3.15,5.35-3.8,8.37-.69,3.02-.75,6.07-.66,9.02.14,4.47.6,8.87.2,13.03-3.5-2.51-8.21-3.25-12.51-2.35-2.28.46-4.49,1.34-6.47,2.64-1.97,1.29-3.76,2.97-5.03,5.03-.64,1.02-1.16,2.15-1.55,3.28-.38,1.13-.66,2.25-.9,3.33-.48,2.19-.97,4.11-1.96,5.91-1.93,3.63-5.06,6.74-7.79,10.37-2.7,3.63-5.02,7.55-6.8,11.7-1.78,4.15-2.98,8.55-3.49,13.01-.53,4.47-.24,9.02.87,13.39,1.15,4.35,3.09,8.57,6.11,12.06.73.89,1.57,1.7,2.39,2.48.84.76,1.66,1.46,2.33,2.21.67.75,1.16,1.53,1.4,2.37.25.85.29,1.82.24,2.85-.29,4.23-1.15,8.86-.13,13.63.5,2.37,1.58,4.71,3.1,6.64,1.53,1.93,3.41,3.49,5.44,4.75,2.03,1.25,4.25,2.19,6.47,2.84,2.23.67,4.48,1.14,6.7,1.5l6.59.94c1.15.15,1.92.33,2.16.61.37.3.75,1.2,1.25,2.31,2,4.36,5.37,7.97,9.44,10.32,2.02,1.2,4.25,2.03,6.54,2.52,2.27.45,4.58.65,6.88.49,4.2-.24,8.32-1.82,11.47-4.46,1.07.28,2.22.29,3.31.06-.62,11.86-1.69,23.68-2.61,35.53-.48,6.1-.86,12.22-1.08,18.35-.25,6.1-.56,12.19-1.8,18.07-1.21,5.88-3.62,11.42-6.97,16.39-3.34,4.97-7.43,9.44-11.94,13.45-8.95,8.13-19.38,14.51-30.28,19.84-21.86,10.65-45.46,17.64-67.67,28.36-11.05,5.39-21.75,11.82-30.98,20.1-2.29,2.07-4.53,4.22-6.61,6.5-1.09,1.1-2.04,2.32-3.02,3.52l-2.93,3.59c-.93,1.23-1.77,2.53-2.65,3.8-.85,1.29-1.8,2.51-2.57,3.85l-2.32,4-1.16,2c-.36.68-.68,1.38-1.03,2.07-5.55,11-9.52,22.7-12.6,34.56-.78,2.97-1.45,5.95-2.18,8.93l-1.94,8.98-3.66,17.99c-2.41,11.99-4.86,23.98-8.21,35.72-3.36,11.74-7.4,23.28-11.37,34.86-1.99,5.79-3.97,11.58-5.84,17.42-.94,2.92-1.84,5.85-2.7,8.79-.9,2.93-1.71,5.89-2.54,8.85-3.26,11.83-5.96,23.8-8.39,35.82-4.86,24.04-8.31,48.31-11.82,72.53l-.25,1.71,1.72.25c9.92,1.44,19.93,2.32,29.95,2.59,10.02.25,20.06-.06,30.05-.95,9.99-.88,19.92-2.32,29.75-4.33,9.82-2.01,19.54-4.55,29.06-7.69l.73-.24.3-.69c5.67-13.19,10.84-26.58,15.57-40.13,4.72-13.55,9-27.25,12.73-41.1,1.87-6.92,3.65-13.88,5.14-20.9,1.52-7.01,2.81-14.07,3.95-21.15,2.2-13.76,3.78-27.62,5.44-41.41.76,1.4,1.41,2.84,1.86,4.37,1.12,3.33,1.73,6.82,2.19,10.35.24,1.77.39,3.54.58,5.31.12,1.78.27,3.55.33,5.33.33,7.12.08,14.26-.18,21.43-.06,1.53-.11,3.05-.17,4.58-.02.38-.05.76-.08,1.14h.04c-.17,5.28-.28,10.57-.07,15.88.13,3.63.42,7.23.64,10.79l.71,10.72.71,10.72c.13,1.81.22,3.51.38,5.42l.58,5.37c.39,3.56.75,7.11,1.01,10.65.12,1.77.23,3.54.25,5.27.01.87,0,1.73-.06,2.54-.03.4-.07.81-.13,1.12-.03.18-.07.28-.09.39-.01.04,0,0,0,0,0,.03.04-.06.09-.13.05-.06.12-.11.2-.15l1.91,2.85s0,0,0,0h0c33.51-22.47,66.27-46.09,97.76-71.32,15.76-12.59,31.33-25.42,46.54-38.67,15.24-13.22,30.16-26.79,44.86-40.58,29.43-27.56,58.23-55.75,88.19-82.7,29.88-27.03,61.04-52.64,93.65-76.17l1.25-.9-.95-1.2Z"/>
      <path class="cls-6" d="m351.98,162.61c-1.42,1.21-2.68,2.63-3.48,4.31-2.17,4.54-.51,10.25,2.98,13.88,3.49,3.63,8.44,5.49,13.37,6.51,3.96.82,8.22,1.13,11.92-.5,5.91-2.61,8.85-10.04,7.19-16.29-3.64-13.76-22.02-16.4-31.99-7.91Z"/>
      <path class="cls-6" d="m357.28,162.96c-.81.35-1.53.77-1.99,1.27-1.24,1.34-.29,3.02,1.71,4.08,1.99,1.07,4.82,1.62,7.64,1.92,2.26.24,4.7.33,6.81-.15,3.38-.77,5.06-2.96,4.11-4.79-2.08-4.05-12.59-4.83-18.28-2.33Z"/>
      <g>
        <g>
          <g>
            <path class="cls-5" d="m242.82,209.21c.63-3.03,1.34-6.4,3.89-8.49,2.6-2.31,7.05-2.06,8.46,1.45,1.21,3.07.33,6.48-.61,9.49-5.04,14.65-7.18,30.28-6.17,45.72,0,0,.05.79.05.79l-.77.23c-5.01,1.41-9.43-2.84-11.4-7.04-1.81-3.79-2.57-8.48-5.18-11.61-1.6-2.02-4.33-3.44-6.33-5.99-3.83-4.88-4.66-11.01-6.21-16.71,0,0-4.22-16.91-4.22-16.91-1.84-8.4-5.15-17.28-5.09-25.96.07-5.64,2.18-11.39-.03-16.61-1.1-2.69-3.01-5.25-3.41-8.37-.95-6.14,3.13-11.73,4.62-17.24,2.75-11.15-3.04-24,4.94-34.31,4.35-6.16,10.2-10.31,12.99-17.02,1.57-4.04,1.95-8.68,4.3-12.47,3.04-5.17,7.79-8.79,11.53-13.28,7.49-8.78,12.95-19.65,22.52-26.63,4.72-3.54,10.54-5.96,16.51-5.88,2.94-.03,5.83.2,8.6-.29,2.77-.49,5.39-1.68,7.93-3.03,2.55-1.35,5.05-2.86,7.76-4.05,8.19-3.7,17.53-2.18,26.03-.86,5.73.89,11.48,1.64,17.19.95,5.74-.71,11.51-2.14,17.36-2,11.88-.2,22.92,4.98,33.35,10.01,7.56,3.86,16.55,6.95,23.34,12.14,4.68,3.6,8.24,8.36,12.35,12.45,5.15,5.11,11.64,8.92,16.15,14.78.73,1.01,1.99,2.56,2.61,3.65,11.17,17.89,9.69,40.11,8.89,60.22-.39,8.89-1.37,18.6-7.5,25.64,0,0-2.6,2.98-2.6,2.98-1.17-15.12-3.16-30.17-4.57-45.36-.29-2.76-.42-7.31-1.35-9.84-.91-2.76-3.45-5.12-5.56-8.14-4.2-5.9-6.88-12.84-7.81-20.01,0,0,3.54.01,3.54.01-.82,7.48-5.61,15.15-13.43,16.65-3.51.88-7.52.26-10.85-.24-6.95-.87-10.85,5.39-14.85,10.26-3.39,4.13-8.4,8.76-14.4,8.16-1.69-.09-3.56-1.13-4.98-1.37-1.27-.1-1.66.88-2.41,1.97-2.86,4.53-5.71,9.01-10.02,12.48-2.87,2.34-6.62,3.93-10.34,4.07-3.66.22-7.1-.3-10.18.26-6.91,1.18-9.44,8.22-12.25,13.92-4.3,10.47-14.37,17.36-25.84,15.82,0,0,1.18-.63,1.18-.63-3.58,7.08-7.66,14.5-14.54,18.99-5.05,3.48-11.8,4.73-17.66,2.62-3.78-1.18-7.28-3.03-11.11-3.89-5.67-1.49-11.63,1.12-15.23,5.56-5.21,5.92-5.66,15.49.63,20.86,0,0-.22.26-.22.26-3.06-2.56-5.01-6.47-5.08-10.52-.16-8.12,6.09-15.96,14.06-17.57,8.09-1.63,15.1,4.64,23,4.66,12.24-.31,19.46-11.96,24.09-21.98,0,0,.35-.73.35-.73,0,0,.83.1.83.1,8.14,1,16.62-3.17,20.76-10.25,2.69-4.5,4.13-9.38,7.25-13.85,5.29-7.69,11.94-6.46,19.74-6.66,8.59-.48,13.64-8.55,17.76-15.25,1.92-3.58,4.74-4.42,8.45-2.77,5.4,2.09,10.13-2.42,13.46-6.43,3.22-4.01,6.71-9.08,12.03-10.96,3.53-1.44,7.53-.21,10.93.01,6.49.63,12.2-3.15,14.22-9.35,1.32-3.53,2.28-13.41,3-17.12,1.81,14.2,2.08,23.46,12.01,34.88,2.39,2.72,3.82,6.92,3.95,10.52,1.18,15.54,3.21,31.02,4.43,46.65,0,0-2.93-.97-2.93-.97,3.57-4.04,5.29-9.48,6.07-15.05.77-5.59.85-11.44,1.16-17.22.66-18.29.73-38.28-10.78-53.39-4.39-5.77-10.69-9.56-15.75-14.77-4.05-4.16-7.47-8.87-11.96-12.46-4.48-3.56-9.81-5.91-14.95-8.43-7.66-3.49-15.81-8.08-23.65-10.93-5.38-1.99-11.08-3.08-16.82-3.15-5.82-.16-11.45,1.23-17.22,1.91-11.69,1.44-23.09-3.4-34.68-2.4-5.87.39-10.86,3.36-15.89,6.2-2.57,1.38-5.29,2.66-8.26,3.2-2.97.54-5.93.31-8.79.36-5.74-.02-11.18,2.27-15.69,5.73-9.33,7.07-14.47,17.85-21.85,26.78-3.72,4.6-8.36,8.3-11.09,13.13-1.39,2.38-2.02,5.05-2.69,7.92-.64,2.89-1.71,5.91-3.35,8.41-4.7,7.52-12.34,12.34-14.2,21.03-1.19,5.54-.23,11.32-.14,17.04.05,2.97-.11,6.04-.89,9.05-.8,3.01-2.12,5.67-3.13,8.3-2.74,6.77-1.26,9.03,1.84,15.38,1.24,2.9,1.35,6.22,1.05,9.27-.27,2.99-.82,5.83-.9,8.58-.16,5.64,1.49,11.23,2.79,16.75,1.3,5.52,4.82,19.74,6.17,25.4,1.41,5.39,2.23,11.33,5.62,15.78,1.74,2.28,4.34,3.7,6.21,6.06,3.86,4.79,3.53,11.06,7.5,15.56,1.74,2,4.29,3.37,6.64,2.67,0,0-.72,1.02-.72,1.02-.82-15.68,1.63-31.5,7.12-46.2.92-2.76,1.87-5.94.84-8.79-1.07-3.04-5.02-3.18-7.25-1.29-2.46,1.88-3.25,5.17-3.95,8.07,0,0-.33-.07-.33-.07h0Z"/>
            <path class="cls-5" d="m211.45,128.74c-7.45-4.3-17.91-1.18-22.09,6.02-1.65,2.83-1.74,6.07-2.67,9.21-.95,3.39-3.07,6.47-5.26,9.07-10.32,11.14-19.47,25.27-14.86,41.04,1.2,4.18,3.41,8.05,6.37,11.11,3.57,3.56,8.04,5.25,7.7,11.23-.07,4.38-.71,8.68.28,12.84,2.94,11.06,16.05,12.36,25.73,13.91,3.55.35,4.91,2.1,5.91,5.06,3.17,7.82,11.38,12.9,19.75,12.91,4.32.1,8.63-1.13,12.16-3.71,0,0,.22.26.22.26-3.24,3.11-7.74,4.94-12.33,5.22-9.46.8-18.93-4.62-22.86-13.35-1.09-2.31-.8-2.59-3.41-2.92-6.7-.96-13.83-1.6-19.77-5.28-10.03-6.1-9.58-14.96-8.42-25.01.14-2.05-.19-3.69-1.62-5.21-1.43-1.55-3.36-2.99-4.72-4.69-3.01-3.49-4.96-7.71-6.11-12.06-3.44-13.31,1.37-27.39,9.42-38.1,2.73-3.63,5.86-6.74,7.79-10.37,2.11-3.77,1.92-8.79,4.42-12.52,4.93-7.92,17.13-10.81,24.55-4.93,0,0-.19.28-.19.28h0Z"/>
            <path class="cls-5" d="m376.65,150.89c5.37-4.63,12.84-6.48,19.86-6,4.62.1,7.67,3.43,8.53,7.65.8,3.53.85,7.1.05,10.51h-.23c-.02-3.37-.52-6.75-1.53-9.96-.97-3.33-3.33-6-7-5.93-6.71-.55-13.58.82-19.57,3.93,0,0-.11-.2-.11-.2h0Z"/>
            <path class="cls-5" d="m379.69,149.67c2.09,7.27,9.35,12.47,16.93,12.26,1.27.02,2.55-.31,3.9-.17,1.24-.04,2.49,1.75,3.57.59-.36.62-1.24.52-1.79.24-1.79-1.09-3.69-.22-5.65-.09-5.32.48-10.83-1.47-14.65-5.28-1.94-1.91-3.48-4.23-4.47-6.82,0,0,2.16-.74,2.16-.74h0Z"/>
            <path class="cls-5" d="m440.02,153.27c-3.28,3.05-1.89,8.28-1.97,12.31.2,4.38.59,8.75.9,13.14.4,8.83,1.41,17.6,2.94,26.31,1.7,7.95.66,15.4-9.3,15.18-3.19.11-6.73.14-9.93.14-1.91.05-4.06-.17-5.34,1.29-1.21,1.67-2.32,4.78-1.09,6.71.75,1.08,2.52,1.59,3.38.32.55-.8.62-1.95.48-3.01l.22-.05c.34,1.06.49,2.28-.07,3.44-.95,1.99-3.78,1.69-5.04.15-1.32-1.46-1.29-3.68-.89-5.4.43-2.53,2.02-5,4.79-5.46,2.1-.43,4.73-.32,6.81-.42,2.21-.04,4.41-.09,6.62-.08,2.18.02,4.26-.06,5.67-1.16,3.28-2.64,2.67-7.58,2.43-11.51-.45-8.85-2.22-17.53-3.58-26.26-.58-4.4-.83-8.85-.78-13.29.14-3.35-.08-6.86,1.31-10.01.48-1.06,1.3-1.99,2.3-2.52l.12.19h0Z"/>
            <path class="cls-5" d="m410.04,197.86c-2.86,2.38-5.61,4.67-6.96,8.15-1.7,3.37-.25,7.78,3.81,8.04.84.04,1.66-.23,2.15-.65,2.72-3.9,6.57-4.48,10.97-3.53.79.15,1.95.44,2.54,1.29.5.77.57,1.65,0,2.43-.78.9-1.8.48-2.72.4-.95-.14-1.91-.29-2.86-.49v-.23c1.38-.28,2.86-.44,4.22-.62.15-.05.05-.07.02-.05-.04,0-.03-.04-.06-.11-.22-.37-.88-.36-1.46-.43-2.45-.19-5.45-.43-7.43.94-.78.54-1.25,1.37-2.2,1.92-1.11.64-2.32.61-3.35.36-4.16-1.21-6.38-5.77-5.44-9.85,1.04-4.05,4.86-6.74,8.66-7.77,0,0,.11.2.11.2h0Z"/>
            <path class="cls-5" d="m388.99,235.72c-.21,1.27-1.67,2.13-3.03,1.81.18-1.6,1.01-3.84,3.01-3.99,2.45-.17,4.88,1.45,6.89,1.94,1.67.35,3.61.32,5.38.49,3.87.01,7.36,2.46,10.54,4.28,1.66.95,3.46,1.02,5.29,1.55.98.31,1.77.97,2.43,1.65,2.19,2.03,3.77,4.53,4.03,7.53,0,0-1.39-.15-1.39-.15.46-1.79.86-3.56.92-5.28.09-2.45-.65-5.01-2.77-6.27-1.56-.7-3.83-1.89-4.82-3.46-1.07-1.31-1.87-2.88-3.37-3.47-.65-.24-1.48-.32-2.4-.37-5.53-.3-11.01.04-16.52.9,0,0-.06-.22-.06-.22,3.52-1.28,7.22-2.08,10.97-2.52,3.79-.2,8.73-1.43,11.52,1.94,1.38,1.54,2.2,3.15,3.46,3.9,1.51.84,3.83,1.93,4.7,3.71,2.91,4.85.15,10.33-1.56,14.99-.15-2.73.18-6.28-1.5-8.59-1.14-1.38-2.22-3.08-3.86-3.61-1.76-.46-3.77-.53-5.49-1.27-1.8-.68-3.45-1.6-5.12-2.21-3.27-1.31-6.87-.73-10.89-1.64-2.24-.68-4.02-2.2-6.29-2.41-1.24-.01-1.79,1.18-2.21,2.33,0,0-.32-.51-.32-.51.77.24,1.85-.2,2.24-1.1l.22.06h0Z"/>
            <path class="cls-5" d="m395.11,242.39c3.35,2.97,6.17,6.83,10.22,8.84,2,.98,4.22,1.58,6.39,2.23,2.17.59,4.44,1.03,6.62.47l.1.33c-3.9,3.49-12.4,1.71-16.41-1-3.6-2.69-5.73-6.33-7.17-10.62,0,0,.24-.24.24-.24h0Z"/>
            <path class="cls-5" d="m437.23,169.46c7.74-4.87,16.43,2.49,11.7,10.64,0,0-.23-.03-.23-.03.63-4.82-1.38-9.86-6.75-10.35-1.55-.2-3.13-.11-4.71-.04l-.02-.23h0Z"/>
            <path class="cls-5" d="m438.79,177.53c1.31,2.27,4.52,3.75,7.57,2.95-2.77,1.5-6.74,1.09-9.35-1.52l1.78-1.43h0Z"/>
            <path class="cls-5" d="m402.19,134.11c-6.87-.93-13.79,0-20.6,1-6.77.79-13.62,2.35-20.31,3.64,0,0-4.71.89-4.71.89l4.23-2.14c10.85-5.4,23.04-6.46,34.93-6.56,9.72.42,21.82-1.33,28.67,7.32.83,1.2,1.77,2.37,1.85,3.94.11,1.47-1.58,2.66-2.93,2.13-.74-.24-1.19-.64-1.61-1-5.2-5.21-12.26-8.24-19.52-9.24h0Zm.03-.23c5.89.79,11.85,2.28,17.07,5.3.89.53,1.71,1.02,2.59,1.7.66.53,1.34,1.25,2.04,1.44.11.02.14,0,.13,0,0,0,.05-.05.02-.03-.02.02-.03.05-.03-.03-.11-.66-.69-1.43-1.09-2.03-4.81-6.58-13.82-6.74-21.36-7.12-5.71-.28-12.02-.77-17.71-.57-7.81.19-15.78,1.92-22.42,6.13,0,0-.48-1.25-.48-1.25,3.33-.88,6.64-1.91,10.05-2.68,10.24-2.13,20.85-2.03,31.19-.87h0Z"/>
            <path class="cls-5" d="m451.16,158.15c2.21,2.25,4.08,5.45,3.94,8.71,0,0-1.79-.06-1.79-.06.32-.98.6-2.05.68-3.14.23-4-2.74-9.35-7.07-8.9-.23,0-.47,0-.55.04-.11.03-.02,0,.03-.13.05-.15-.02-.2-.02-.12,0,.16.14.39.3.48,1.37,1.13,3.26,1.79,4.48,3.13h0Zm-.17.16c-1.4-1.51-3.64-.97-5.42-1.74-1.83-.79-1.97-3.4.04-4.05,5.25-1.34,8.33,3.05,8.77,7.72.23,2.07.84,4.82.7,6.92,0,0-.41,5.13-.41,5.13s-1.38-5.19-1.38-5.19c-.98-2.92-.1-6.4-2.3-8.79h0Z"/>
            <path class="cls-5" d="m455.2,150.92c1.54,7.57,2.72,15.88-1.16,23.09-2.37,4.42-6.26,6.58-7.56,10.74-1.28,4.72-.98,9.67-1.39,14.56-.22,2.93-.69,5.77-1.23,8.63-2.02,10.36-4.99,20.57-8.86,30.39-4.03,10.79-10.17,20.77-16.37,30.39,0,0-1.44,2.42-1.44,2.42-1.97,3.12-2.06,6.82-2.98,10.43-1.67,7.23-8.43,12.54-15.55,13.66-8.03,1.27-15.96-2.31-21.45-7.96,0,0,.23-.26.23-.26,5.82,4.46,13.51,7.21,20.71,5.57,5.09-1.22,9.75-4.62,11.81-9.43,1.45-3.59,1.23-7.28,2.7-11.02,2.35-5.37,6.34-9.91,9.33-14.83,3.09-4.77,5.96-9.67,8.69-14.66,6.35-11.64,10.99-24.44,11.78-37.76.69-6.61-.73-13.69.85-20.23,1.05-5.01,6.3-8.34,8.41-11.96,3.91-6.5,3.3-14.37,3.12-21.73,0,0,.34-.04.34-.04h0Z"/>
            <path class="cls-5" d="m248.91,181.31c1.51,9.04,4.86,17.95,10.79,25.04,2.07,2.32,4.44,4.39,6.45,6.87,3.88,5.24,8.17,8.4,14.71,6.63,5.45-1.4,9.15-7.66,7.99-13.77l.22-.07c2.82,6.2-.88,14.28-7.51,16.18-3.3,1.02-6.93.58-9.94-1.01-3.02-1.52-4.83-4.48-6.48-7.21-3.18-5.31-8.71-8.85-12.14-14.34-3.34-5.4-4.96-11.99-4.31-18.3,0,0,.23,0,.23,0h0Z"/>
            <path class="cls-5" d="m263.81,169.32c3.45,1.12,7.27,3.08,8.79,6.71,1.09,2.46.31,5.1-.1,7.5-.5,2.31.43,4.63,2.65,5.6,2.19,1.12,4.69,1.1,6.9,2.43,2.6,1.38,4.07,5.53,1.52,7.74-4.62,3.57-12.05-1.39-12.2-6.72-.05-1.3.31-2.63,1.07-3.61l.2.11c-1.54,4.4,2.73,8.58,6.88,8.96,2.05.23,3.54-.8,3.09-2.62-.96-3.36-5.17-3.9-7.83-5.62-2.3-1.19-3.56-3.8-3.53-6.34.36-8.09-1.34-9.2-7.54-13.95,0,0,.11-.2.11-.2h0Z"/>
            <path class="cls-5" d="m392.24,294.14c-12.25,12.23-29.63,13.29-45.21,7.29-7.43-3.21-14.14-7.66-20.48-12.64-6.18-5.12-11.69-11.44-14.76-18.91,0,0,.2-.1.2-.1,4.3,6.69,9.9,12.23,16.09,17.13,3.06,2.45,6.24,4.8,9.5,7.04,6.48,4.44,13.14,9.16,21.2,9.78,7.81.6,15.64-1.38,22.89-4.2,3.62-1.48,7.07-3.37,10.42-5.55,0,0,.15.18.15.18h0Z"/>
            <path class="cls-5" d="m384.86,298.72c-.7,8.15,3.08,15.86,8.91,21.35,5.76,5.56,12.77,9.7,19.55,14.03,13.7,8.5,28.11,15.83,43.02,21.91,11.07,4.57,22.67,8.55,34.24,11.7,15.63,4.2,32.55,5.64,46.5,14.58,3.95,2.55,7.47,5.85,10.34,9.64,0,0-1.29.93-1.29.93-98.98,69.97-177.94,163.63-273.28,238.09-31.5,25.21-64.18,48.96-97.75,71.33l-1.91-2.85c-.07.03-.14.09-.2.15-.06.06-.1.16-.09.13-.01,0-.02.04,0,0,.6-3.03.17-6.22.04-9.32-.43-5.05-1-10.92-1.59-16.02-.55-7.72-1.27-19.1-1.8-26.87-.91-10.74-.9-21.68-.37-32.39.41-14.15,1.14-28.72-2.91-42.41-1.57-5.17-5.17-9.24-7.93-13.8-4.62-7.8-6.27-17.33-4.53-26.18,0,0,.34.06.34.06-1.47,8.8.39,18.04,5.12,25.55,2.93,4.51,6.72,8.65,8.45,13.86,2.38,6.91,3.06,14.17,3.59,21.39.92,14.36-.39,28.68.29,43.01.3,6.26,1.17,15.13,1.6,21.42.53,5.91,1.05,15.49,1.9,21.36.63,5.38,1.29,10.77,1.47,16.22.02,1.74.1,3.55-.45,5.3-.17.5-.54,1.05-1.01,1.39,0,0-1.91-2.85-1.91-2.85,66.77-45.03,130.14-95.01,189.68-149.25,59.96-53.85,116.34-111.96,181.5-159.78,0,0-.31,2.16-.31,2.16-4.91-6.12-11.86-10.21-19.19-12.91-11.29-4.34-23.35-6.02-35.02-9.22-11.68-3.24-23.34-7.36-34.49-12.06-18.66-8.01-36.48-17.9-53.02-29.66-3.29-2.38-6.49-4.95-9.35-7.87-5.82-5.74-9.51-13.91-8.47-22.16,0,0,.34.03.34.03h0Z"/>
            <path class="cls-5" d="m247.56,257.45c-.23,18.36-1.93,36.65-2.28,55-.08,12.26-1.38,25.33-8.56,35.74-36.82,52.24-115.02,45.71-154.01,95.14-19.01,24.32-24.65,55.67-30.46,85.26-2.32,12.01-4.77,24.03-7.97,35.87-6.45,23.63-15.37,46.45-21.33,70.2-9.21,35.51-14.21,71.86-19.23,108.18,0,0-1.49-1.98-1.49-1.98,19.6,2.68,39.49,3.24,59.2,1.55,19.72-1.67,39.22-5.65,58.08-11.66,0,0-1,.91-1,.91,11.09-25.01,20.39-50.8,28.19-77.03,8.06-26.22,12.72-53.26,16.54-80.38,0,0,.34.04.34.04-3.05,27.26-7.06,54.55-14.72,80.96-7.37,26.73-16.66,52.92-27.61,78.41-19.25,6.46-39.29,10.48-59.51,12.29-20.56,1.83-41.33,1.24-61.74-1.87,5.33-36.9,10.6-74.03,20.45-110.08,6.33-23.66,15.7-46.41,22.46-69.92,3.42-11.72,5.82-23.72,8.23-35.71,6.05-29.79,11.43-61.25,30.14-86.15,34.66-45.82,100.32-45.09,141.47-81.91,8.89-7.99,16.51-17.94,18.88-29.85,2.33-11.88,1.66-24.35,2.89-36.42.97-12.21,2.08-24.38,2.71-36.6,0,0,.34.01.34.01h0Z"/>
            <path class="cls-5" d="m186.57,578.07c-.63,3.3-1.74,6.5-.33,9.65,3.65,6.87,13.19,3.27,14.11-3.59.45-2.99-.74-6.34-3.42-8.64l.11-.2c5.87,1.76,7.83,10.17,3.06,14.44-2.76,2.87-7.12,3.11-10.64,1.88-1.8-.57-3.79-1.22-4.88-2.95-2.16-3.42-.46-7.81,1.78-10.66,0,0,.21.09.21.09h0Z"/>
            <path class="cls-5" d="m190.89,580.2c-1.01,1.09-1.28,1.92-1.78,2.79-.28.41-.66.97-.54,1.57.1.58.63,1.06,1.14,1.08.5.01.86-.2,1.33-.38,1.29-.73,2.49-1.62,2.1-3.33,0,0,.15-.17.15-.17.81.18,1.38,1.05,1.48,1.93.31,2.39-2.29,4.05-4.44,3.66-1.29-.2-2.03-1.57-2.46-2.56-.29-.65-.68-1.46-.59-2.31.21-1.65,1.98-3,3.56-2.5l.05.22h0Z"/>
            <path class="cls-5" d="m172.91,627.77c13.46,20.41,39.74,31.47,63.56,26.72,0,0,.59,3.37.59,3.37-24.91,3.78-51.32-8.6-64.15-30.09h0Z"/>
            <path class="cls-5" d="m168.93,620.83c.55-6.95.87-13.91.67-20.9-.01-6.24-.71-14.98.03-21.11,1.58-13.87,9.18-28.01,22.4-33.72-12.94,6.01-20.08,20.11-21.27,33.84-.35,3.48-.16,6.93.03,10.42.31,6.2.81,14.94.79,21.07-.03,3.53-.25,7.06-.37,10.6,0,0-2.27-.21-2.27-.21h0Z"/>
            <path class="cls-5" d="m378.85,149.69c5.37-1.35,10.93-2.53,16.53-2.06,6.49.28,8.28,7.23,8.45,12.61-.31-5.22-2.17-12.08-8.49-12.18-5.53-.32-10.98.98-16.28,2.46,0,0-.22-.83-.22-.83h0Z"/>
            <path class="cls-5" d="m437.78,169.69c3.81-.44,8.99.89,9.62,5.3-.83-4.27-5.85-5.33-9.57-4.73,0,0-.05-.57-.05-.57h0Z"/>
            <path class="cls-5" d="m256.82,178.13c1.31,9.66,5.19,18.96,11.39,26.5,3.4,4.49,5.87.92,9.83-.37,1.95-.53,4.05-.48,5.89.23-1.91-.46-3.92-.37-5.72.3-4.18,1.79-6.72,5.46-10.83.54-6.42-7.55-10.32-17.27-10.57-27.19h0Z"/>
            <path class="cls-5" d="m261.01,170.17c-1.63,5.83-.68,12.07.92,17.84,0,0-.43.06-.43.06.21-3.84,1.14-7.62,2.72-11.09-1.45,3.53-2.22,7.32-2.28,11.11,0,0-.02,1.33-.02,1.33-2.08-6.24-3.59-12.97-2.02-19.53,0,0,1.1.29,1.1.29h0Z"/>
            <g>
              <path class="cls-5" d="m429.26,84.42c-7.46,2.75-15.44.07-23.01-.51-16.33-1.7-27.14,13.07-41.14,18.79-7.18,2.97-15.15,4.01-22.87,2.85-5.73-.84-11.21-3.07-17.02-2.73-10,.64-16.12,9.48-24.91,13.7-10.55,5.27-23.42,5.33-34.08.42-1.7-.76-3.55-1.8-5.07-2.87-1.65-1.04-3.17-2.29-4.36-3.82,0,0,.08-.08.08-.08,1.26,1.49,2.79,2.63,4.47,3.6,1.57.98,3.41,1.94,5.11,2.64,10.55,4.48,23.09,4.18,33.32-.95,8.37-4.07,15.19-13.21,25.38-13.65,5.91-.24,11.5,2.15,17.18,3.11,7.56,1.34,15.55.46,22.61-2.59,14.01-6.08,24.54-21.41,41.37-19.29,7.63.82,15.49,3.42,22.94,1.39h0Z"/>
              <path class="cls-5" d="m393.52,101.78c-1.42.97-3.27.94-4.89.58-3.18-.72-6.26-2.31-9.56-1.55-4.92.95-8.57,4.5-12.24,7.75-2.47,2.24-5.28,4.16-8.26,5.7-6,3.04-12.75,4.39-19.4,4.15-9.8-.39-19.78-4.63-29.34-1-6.18,2.36-11.4,6.72-17.53,9.3-9.19,3.92-19.57,5.82-29.47,3.94-7.06-1.41-11.95-6.9-12.26-14.12,1.29,7.17,4.94,11.75,12.45,13.25,9.68,1.59,19.84-.38,28.81-4.15,9.26-3.97,16.79-11.4,27.65-10.28,6.68.41,13.08,2.51,19.7,2.67,6.6.2,13.19-1.51,18.95-4.59,8.7-3.94,15.03-15.97,25.87-13,1.62.46,3.13,1.14,4.72,1.57,1.55.43,3.3.56,4.74-.31l.06.1h0Z"/>
              <path class="cls-5" d="m344.68,122.61c-14.29,7.23-23.32,17.55-40.78,16.01-4.94-.19-9.91-.6-14.77.11-4.89.58-9.23,3.12-14.16,4.27-4.89,1.17-9.9,1.4-14.83,1.59-4.91.21-10.09.28-14.84-1.65-4.77-1.89-8.04-6.32-9.46-11.1,0,0,.11-.04.11-.04.9,2.3,2.13,4.47,3.75,6.28,1.62,1.82,3.68,3.17,5.93,4.04,4.6,1.71,9.61,1.5,14.46,1.3,7.45-.24,14.72-.83,21.67-3.61,7.07-2.73,14.8-1.75,22.15-1.56,16.66,1.2,26.69-10.3,40.77-15.62h0Z"/>
              <path class="cls-5" d="m331.72,141.55c-4.25,5.98-12.15,7.78-19.12,7.65-7.06-.09-13.99-2.07-21.04-1.7-4.68.19-9.29,1.21-13.81,2.43-13.29,3.7-28.2,9.14-41.52,2.63-4.14-2.05-8.31-5.66-9.92-9.84,2.38,4.06,6.09,7.17,10.3,9.04,13.25,5.88,27.67.58,40.99-2.43,4.59-1.05,9.23-1.92,13.94-2.22,4.72-.3,9.44.16,14.11.59,9.19,1.11,19.46.98,26.08-6.15h0Z"/>
              <path class="cls-5" d="m305.86,159.09c-9.64,12.36-27.03,6.46-40.17,5.32-4.67-.55-9.36-.91-14.03-1.38l.36-.12c-5.47,5.41-13.73,7.36-21.17,5.86-7.46-1.35-14.06-5.38-20.05-9.82,0,0,.06-.09.06-.09,3.17,1.95,6.38,3.84,9.73,5.39,9.68,4.82,22.41,5.84,30.81-1.99,0,0,.16-.14.16-.14l.2.03c4.66.62,9.31,1.35,13.97,1.89,4.66.58,9.35,1.01,14.03,1.41,9.42.93,19.2.77,26.1-6.36h0Z"/>
              <path class="cls-5" d="m435.51,75.98c-8.92,8.34-22.08,3.91-32.53,1.81-8.28-1.87-16.85-.41-24.69,2.58-7.96,2.89-15.52,6.77-23.84,8.67-11.04,2.6-22.79,2.43-33.66-.88-5.37-1.69-10.67-4.66-13.75-9.5,0,0,.09-.06.09-.06,1.66,2.27,3.83,4.1,6.23,5.51,7.3,4.16,15.95,5.22,24.22,5.53,11.29.36,22.2-2.61,32.64-6.74,10.44-3.95,21.58-8.22,32.93-6.03,10.78,2.03,22.78,6.42,32.36-.88h0Z"/>
            </g>
            <path class="cls-3" d="m210.64,176.11c4,4.12,10.11,6.06,15.75,5.01,5.69-1.06,10.43-4.8,15.13-8.17,4.7-3.37,10.01-6.6,15.79-6.34,3.07.14,6,1.25,8.87,2.36l11.39,4.39"/>
            <path class="cls-3" d="m233.55,241.34c-.2-5.04-.19-10.68,3.29-14.32,2.16-2.26,5.27-3.29,7.96-4.88,4.74-2.79,8.32-7.5,9.73-12.81"/>
            <path class="cls-3" d="m218.21,211.1c6.97-.79,12.07-6.79,16.04-12.58,2.47-3.61,4.81-7.33,6.83-11.21,2.93-5.61,5.43-11.85,10.56-15.56,4.33-3.13,10.23-3.94,15.25-2.1"/>
            <path class="cls-5" d="m436.64,68.25c-2.84,4.37-8.41,5.89-13.37,5.65-5.07-.16-9.83-2.18-14.42-4.11-10.35-4.92-17.95-5.12-28.76-1.52-15.71,5.48-27.25,9.98-43.75,3.09-4.63-1.95-8.88-4.82-12.31-8.45l.08-.08c3.67,3.36,7.97,5.94,12.57,7.7,6.86,2.68,14.39,3.68,21.7,2.81,7.4-.94,14.34-3.72,21.53-5.68,7.16-2.04,14.88-3.26,22.19-1.19,7.16,1.83,13.79,6.09,21.21,6.54,3.64.24,7.43-.32,10.54-2.34,1.01-.69,1.91-1.54,2.69-2.5l.09.07h0Z"/>
            <path class="cls-5" d="m439.49,78.17c.7,1.85,1.74,3.53,2.84,5.17,2.16,3.21,4.35,6.69,8,8.3,10.61,4.03,13.28,14.37,13.81,24.69,0,0-.11.01-.11.01-1.64-7.42-3.03-15.86-9.03-21.05-3.05-2.5-7.3-3.43-9.64-6.81-1.26-1.57-2.27-3.28-3.31-4.95-1.03-1.68-2.03-3.43-2.66-5.31,0,0,.11-.04.11-.04h0Z"/>
            <path class="cls-5" d="m449.24,97.2c3.72,3.05,7.4,6.82,8.16,11.79.93,4.8,3.63,8.67,6.01,12.86,0,0-.09.07-.09.07-2.5-2.64-4.87-5.62-6.01-9.15-.77-2.32-.8-4.78-1.67-7.03-1.31-3.36-3.93-5.96-6.48-8.46,0,0,.08-.08.08-.08h0Z"/>
            <path class="cls-5" d="m453.16,122.47c5.52,4.42,7.85,11.98,7.67,18.87,0,0-.11.02-.11.02-1.11-3.31-1.56-6.71-2.49-10.04-1-3.26-2.6-6.42-5.15-8.76,0,0,.07-.09.07-.09h0Z"/>
            <path class="cls-5" d="m437.8,66.01c1.58,5.36,3.78,11.81,9.62,13.64,4.09,1.13,9.25.78,12.73,3.88,1.17,1,2.12,2.28,2.54,3.73,0,0-.11.04-.11.04-6.96-10.85-20.53,1.38-24.79-21.29h0Z"/>
            <path class="cls-5" d="m212.11,159.48c18.63-25.43,40.56-48.5,65.69-67.59,24.66-19.67,52.25-35.99,82.57-45.19,19.97-6.19,40.55-12.55,61.68-12.01,0,0,0,.23,0,.23-10.48.46-20.79,2.37-30.9,5-17.63,4.8-35.13,10.38-52.15,17.05-11.8,4.91-24,11-34.97,17.58-11.22,6.71-21.92,14.4-31.8,22.97-5.71,4.89-11.85,10.76-17.24,16.04-7.41,7.38-14.81,14.78-21.87,22.52-7.08,7.72-13.97,15.61-20.84,23.54l-.18-.14h0Z"/>
            <path class="cls-5" d="m207.26,151.61c13.56-27.42,36.4-49.07,60.78-66.97,32.56-23.88,68.1-45.19,108.17-53.21,9.89-2.18,19.86-3.95,29.89-5.25-19.09,4.76-39.58,8.76-58.5,15.37-9.56,3.08-19.05,6.72-28.07,11.14-9.04,4.51-17.51,10-25.74,15.86-32.9,22.86-65.68,48.69-86.54,83.07h0Z"/>
            <path class="cls-5" d="m215.46,101.28c-1.91,5-.74,10.43,1.9,14.95,1.07,2.6.66,5.36.77,7.97.07,2.63.91,5.25,2.43,7.43-1.59-2.13-2.55-4.74-2.71-7.42-.2-2.64.07-5.39-1.01-7.76-2.9-4.55-4.26-10.27-2.46-15.55,0,0,1.08.37,1.08.37h0Z"/>
            <path class="cls-5" d="m234.37,68c-1,6.51-.74,13.39,4.65,17.92,1.18,1.21,1.91,2.91,1.93,4.61.08,1.68-.2,3.32-.09,4.95.19,3.25,2.22,6.35,5.17,7.83-3-1.4-5.17-4.47-5.46-7.81-.21-3.18.69-6.8-1.97-9.19-1.16-1.16-2.45-2.3-3.32-3.74-2.69-4.37-2.55-9.82-2.04-14.71,0,0,1.13.14,1.13.14h0Z"/>
            <path class="cls-5" d="m229.44,82.51c-3.24,11.81-2.69,24.7,1.64,36.29-4.68-11.45-5.68-24.43-2.74-36.58l1.11.29h0Z"/>
            <path class="cls-5" d="m264.15,31.85c3.1,14.1,12.99,26.36,25.9,32.8-13.2-6.15-23.49-18.31-27.01-32.53,0,0,1.11-.27,1.11-.27h0Z"/>
            <path class="cls-5" d="m297.66,20.71c2.27,10.89,9.81,19.7,16.91,27.93-7.47-8.09-15.32-16.65-18.02-27.68,0,0,1.11-.25,1.11-.25h0Z"/>
            <g>
              <path class="cls-5" d="m225.99,233.38c-1.4,5-6.54,7.75-11.35,8.39-4.88.61-9.64-.49-14.36-.99-4.69-.48-9.82-.24-13.95-2.92-4.11-2.51-7.09-6.83-7.79-11.57.79,4.73,3.85,8.94,7.94,11.33,4.16,2.58,9.15,2.2,13.86,2.6,4.76.42,9.52,1.4,14.18.71,4.41-.66,9.2-3.29,10.36-7.84,0,0,1.1.29,1.1.29h0Z"/>
              <path class="cls-5" d="m236.69,247.83c-2.96,6.89-10.29,11.37-17.52,11.01,7.24-.02,14.06-4.87,16.46-11.43l1.06.42h0Z"/>
              <path class="cls-5" d="m214.66,194.7c-11.04,12.06-34.15,10.46-41.71-4.65-5.55-11.19-1.25-24.23,5.31-33.99,2.16-3.34,4.69-6.47,6.29-10.13-1.55,3.69-4.05,6.85-6.17,10.21-4.21,6.65-7.58,14.24-7.55,22.23.02,5.89,1.89,11.91,6.02,16.2,9.65,9.94,27.7,9.58,36.96-.65,0,0,.84.77.84.77h0Z"/>
              <path class="cls-5" d="m212.34,163.4c-9.49,8.13-20.86.52-23.04-10.27-1.1-4.92-.98-10.01-.46-14.99.47-4.82,3.32-10.37,8.62-10.96-5.26.7-7.95,6.2-8.33,11-.55,7.25-.57,15.32,3.72,21.52,4.26,6.44,12.91,8.38,18.71,2.88,0,0,.79.83.79.83h0Z"/>
              <path class="cls-5" d="m170.92,174.27c-1.83,8.84-.53,18.81,5.64,25.7,5.84,6.9,15.31,10.61,24.26,8.89,5.21-1.03,12.3-3.99,14.07-9.4,0,0,1.1.29,1.1.29-.9,3.18-3.64,5.25-6.32,6.84-10.87,6.51-25.58,3.44-33.43-6.34-6.11-7.03-7.3-17.14-5.31-25.97h0Z"/>
              <path class="cls-5" d="m231.64,238.34c-8.37,8.55-21.44,6.97-32.1,4.9,10.52,1.64,23.35,2.89,31.26-5.67,0,0,.84.78.84.78h0Z"/>
              <path class="cls-5" d="m240.98,255.99c-3.5,3.61-8.38,5.7-13.25,5.78,4.85-.46,9.4-2.91,12.4-6.54l.85.76h0Z"/>
            </g>
            <path class="cls-5" d="m122.02,727.56c-22.41,6.71-45.62,10.67-68.94,11.77,23.3-1.48,46.4-5.82,68.61-12.86l.34,1.09h0Z"/>
            <path class="cls-5" d="m543.53,389.09c-50.24,35.24-97.13,75.32-139.81,119.52,42.13-44.73,88.57-85.44,138.49-121.38l1.32,1.86h0Z"/>
            <path class="cls-5" d="m210.57,157.81c14.39-19.85,31.01-38.22,49.34-54.5,9.1-8.02,19.04-15.73,29.34-22.15,0,0,6.28-3.84,6.28-3.84,0,0-6.24,3.9-6.24,3.9-14.33,9.14-27.7,20.55-39.78,32.5-13.86,13.82-26.71,28.75-38,44.73,0,0-.94-.65-.94-.65h0Z"/>
            <path class="cls-5" d="m381.06,103.9c-6.97-.07-10.87,6.75-14.88,11.48-4.5,5.02-11.63,7.67-18.29,6.78,0,0,0-.11,0-.11,8.06-.74,16.33-4.03,21.08-10.82,1.87-2.74,3.78-5.82,7.07-7.07,1.59-.66,3.41-.86,5.03-.37,0,0-.02.11-.02.11h0Z"/>
            <path class="cls-5" d="m340.4,124.74c-2.76,2.78-5.24,5.76-7.47,8.98-2.72,4.51-3.65,10.07-7.35,14.01-.96.96-2.17,1.76-3.5,2l-.04-.11c2.37-1.21,3.65-3.49,4.82-5.76,1.19-2.3,2.37-4.67,3.75-6.92,1.44-2.23,2.53-4.63,3.89-6.92,1.46-2.22,3.46-4.16,5.82-5.39l.07.09h0Z"/>
            <path class="cls-5" d="m264.59,168.74c13.4,6.11,30.1,2.67,39.73-8.56,1.4-1.54,2.63-3.24,3.74-5.02-.89,1.91-2.03,3.69-3.31,5.38-9.17,12.11-26.99,15.85-40.16,8.2h0Z"/>
          </g>
          <path class="cls-5" d="m265.87,394.1c22.06-1.14,44.21-.41,66.2,1.68,0,0-.98,1.83-.98,1.83-3.01-3.78-5.89-7.66-8.54-11.71-7.97-12.06-14.32-25.23-18.55-39.05,7.18,17.73,16.81,34.47,28.84,49.34,0,0,1.68,2.06,1.68,2.06-6.36-.55-12.75-1.15-19.12-1.59-16.49-1.24-33-1.99-49.53-2.56h0Z"/>
        </g>
        <path class="cls-5" d="m434.06,179.3c1.61,0,1.61-2.5,0-2.5s-1.61,2.5,0,2.5h0Z"/>
        <path class="cls-5" d="m428.05,184.11c1.61,0,1.61-2.5,0-2.5s-1.61,2.5,0,2.5h0Z"/>
        <path class="cls-5" d="m435.06,190.53c1.61,0,1.61-2.5,0-2.5s-1.61,2.5,0,2.5h0Z"/>
        <path class="cls-5" d="m436.83,199.64c1.61,0,1.61-2.5,0-2.5s-1.61,2.5,0,2.5h0Z"/>
        <path class="cls-5" d="m428.65,194.74c1.61,0,1.61-2.5,0-2.5s-1.61,2.5,0,2.5h0Z"/>
      </g>
    </g>
  </g>
</svg>